<svg width="320" height="448" viewBox="0 0 320 448" fill="none" xmlns="http://www.w3.org/2000/svg">
<path d="M308 64C314.627 64 320 58.627 320 52V12C320 5.373 314.627 0 308 0H12C5.373 0 0 5.373 0 12V56.748C0 63.375 5.373 68.748 12 68.748H97.28C124.588 68.748 145.541 78.706 158.25 96H12C5.373 96 0 101.373 0 108V148C0 154.627 5.373 160 12 160H170.757C164.54 196.086 137.796 218.632 96 218.632H12C5.373 218.632 0 224.005 0 230.632V283.644C0 286.993 1.4 290.19 3.861 292.462L168.913 444.818C171.13 446.864 174.036 448 177.052 448H259.614C270.538 448 275.78 434.592 267.753 427.182L116.871 287.906C193.37 285.566 248.015 234.511 255.189 160H308C314.627 160 320 154.627 320 148V108C320 101.373 314.627 96 308 96H249.31C245.824 84.459 241.03 73.754 235.058 64H308Z" fill="white"/>
</svg>
